<?xml version="1.0" encoding="utf-8"?>
<!DOCTYPE svg PUBLIC "-//W3C//DTD SVG 1.1//EN" "http://www.w3.org/Graphics/SVG/1.1/DTD/svg11.dtd">
<svg version="1.1">
<symbol id="svg_x5F_About" viewBox="-11.756 -12 23.512 24">
	<path id="svg_x5F_About_3_" d="M1.122,4.975H-1.22v2.342h2.342V4.975z M1.122,3.853H-1.22V-2h2.342V3.853z M11.756,9.658V-4.391
	c0-1.288-1.054-2.342-2.341-2.342H-6.55L-11.756-12v7.609v1.561V9.658c0,1.288,1.054,2.342,2.341,2.342H9.415
	C10.702,12,11.756,10.946,11.756,9.658z M9.366,9.658H-9.366V-4.391v-1.756l1.722,1.756h17.01V9.658z"/>
</symbol>
<symbol id="svg_x5F_Alert" viewBox="-12 -12 24 24">
	<path d="M0,12c-6.627,0-12-5.372-12-12s5.373-12,12-12S12-6.628,12,0S6.627,12,0,12z M-2.889,7.2c0.798,0,1.445-0.646,1.445-1.444
	c0-0.798-0.647-1.444-1.445-1.444s-1.445,0.646-1.445,1.444C-4.334,6.555-3.687,7.2-2.889,7.2z M0,1.016v-1.58v-2.279h-0.722V-7.2
	h-1.444v4.356h-1.445V-7.2h-1.445v4.356h-0.722v2.279v1.58v1.174c0,0.794,0.65,1.445,1.444,1.445h2.89C-0.65,3.635,0,2.983,0,2.189
	V1.016z M2.889,1.016v-1.58v-2.279V-7.2H1.444v4.356v2.279v1.58v1.174c0,1.136-0.658,2.12-1.614,2.592
	C-0.059,5.087,0,5.413,0,5.756C0,6.282-0.144,6.774-0.391,7.2h1.583c0.161-0.452,0.252-0.938,0.252-1.444
	c0-0.111-0.004-0.22-0.013-0.328c0.894-0.794,1.458-1.952,1.458-3.238V1.016z M5.778,1.016v-1.58v-2.279V-7.2L4.334-7.177v4.333
	v2.279v1.58v1.174c0,1.465-0.548,2.805-1.451,3.824C2.865,6.422,2.802,6.818,2.703,7.2h1.483c0.042-0.204,0.076-0.41,0.1-0.62
	c0.935-1.217,1.492-2.74,1.492-4.391V1.016z"/>
</symbol>
<symbol id="svg_x5F_Alert1" viewBox="-5.484 -12 10.968 24">
	<polygon points="-5.484,-12 -0.797,0.516 -5.116,0.516 -1.651,12 3.921,12 0.354,3.641 5.484,3.641 	"/>
</symbol>
<symbol id="svg_x5F_Alert2" viewBox="-12 -12.002 24 24.004">
	<path d="M11.475,1.27l-10.2,10.2c-0.7,0.71-1.85,0.71-2.55,0l-10.2-10.2c-0.7-0.699-0.7-1.84,0-2.539l10.2-10.2
	c0.7-0.71,1.85-0.71,2.55,0l10.2,10.2C12.175-0.57,12.175,0.57,11.475,1.27z M-3.115-8.14l3.18,8.489h-2.93l2.35,7.79h3.78
	l-2.42-5.67h3.48L-3.115-8.14z"/>
</symbol>
<symbol id="svg_x5F_Calendar" viewBox="-11 -12 22 24">
	<path d="M7.8,9H7v3H5V9H-5v3h-2V9h-0.8C-9.45,9-11,8.25-11,6.6V-9c0-1.65,1.55-3,3.2-3H7.8c1.65,0,3.2,1.35,3.2,3V6.6
	C11,8.25,9.45,9,7.8,9z M9-9H-9V3H9V-9z M-4.463-5.699c0.3-0.18,0.983-0.479,1.727-0.479c1.343,0,1.775,0.852,1.763,1.51
	c-0.012,1.092-0.996,1.561-2.015,1.561h-0.587v0.791h0.587c0.768,0,1.739,0.396,1.739,1.318c0,0.625-0.396,1.176-1.367,1.176
	c-0.624,0-1.224-0.275-1.559-0.516L-4.463,0.43c0.42,0.301,1.211,0.6,2.051,0.6c1.535,0,2.231-0.91,2.231-1.859
	c0-0.814-0.492-1.498-1.439-1.846v-0.025c0.959-0.18,1.727-0.898,1.739-1.99c0-1.246-0.983-2.338-2.842-2.338
	c-0.875,0-1.643,0.275-2.027,0.527L-4.463-5.699z M3.731-0.086H3.708l-1.355-0.73L2.148-0.014l1.703,0.912h0.9v-7.797h-1.02V-0.086
	z"/>
</symbol>
<symbol id="svg_x5F_Calendar2" viewBox="-11.979 -12 23.958 24">
	<path id="svg_x5F_Calendar2_3_" d="M-5.021,0h-2v2h2V0z M-1.021,2h-2V0h2V2z M2.979,2h-2V0h2V2z M6.979,2h-2V0h2V2z M-5.021-1.958
	h-2v-2h2V-1.958z M-1.021-1.958h-2v-2h2V-1.958z M2.979-1.958h-2v-2h2V-1.958z M6.979-1.958h-2v-2h2V-1.958z M-5.021-5.958h-2v-2h2
	V-5.958z M-1.021-5.958h-2v-2h2V-5.958z M2.979-5.958h-2v-2h2V-5.958z M6.979-5.958h-2v-2h2V-5.958z M11.979,8.001V5
	c0-0.55-0.45-1-1-1v-14v-2h-2h-18h-2v2V4.001v0.004c-0.531,0.022-0.958,0.46-0.958,0.995v3.001c0,0.55,0.45,1,1,1h2.958V7h4.042
	v2.001h7.937V7H8v2.001h2.979C11.529,9.001,11.979,8.551,11.979,8.001z M8.979,4h-18v-14h18V4z M-5.021,12h-2V8h2V12z M6.979,12h-2
	V8h2V12z"/>
</symbol>
<symbol id="svg_x5F_DownArrow" viewBox="-2.5 -1.5 5 3">
	<polygon points="-2.5,1.5 2.5,1.5 0,-1.5 	"/>
</symbol>
<symbol id="svg_x5F_Download" viewBox="-12 -11.976 24 23.951">
	<path d="M12,11.976v-2h-24v2H12z M2,7.976h-4v-10h-4.438l6.439-9.951L6.44-2.024H2V7.976z"/>
</symbol>
<symbol id="svg_x5F_Error" viewBox="-12 -12 24 24">
	<path d="M0,12c-6.627,0-12-5.372-12-12s5.373-12,12-12S12-6.628,12,0S6.627,12,0,12z M4.285-5.981L0-1.697l-4.285-4.284
	l-1.697,1.697L-1.697,0l-4.284,4.283l1.697,1.698L0,1.697l4.284,4.284l1.697-1.698L1.697,0l4.284-4.284L4.285-5.981z"/>
</symbol>
<symbol id="svg_x5F_Flag" viewBox="-11 -12 22 24">
	<path d="M11-4H-7v16h18V-4z M-8,12h-3v-24h3V12z"/>
</symbol>
<symbol id="svg_x5F_FullCameraList" viewBox="-12 -11.975 24 23.949">
	<path id="svg_x5F_FullCameraList_3_" d="M-9.605,9.579H-12v2.396h2.395V9.579z M12,11.975H-5.913V9.579H12V11.975z M12,4.79H-5.913
	V2.396H12V4.79z M12-2.396H-5.913V-4.79H12V-2.396z M12-9.579H-5.913v-2.396H12V-9.579z M-9.605,4.79H-12V2.396h2.395V4.79z
		M-9.605-2.396H-12V-4.79h2.395V-2.396z M-9.605-9.579H-12v-2.396h2.395V-9.579z"/>
</symbol>
<symbol id="svg_x5F_HoldProfile" viewBox="-12 -12 24 24">
	<path id="svg_x5F_HoldProfile_3_" d="M0,12c-6.617,0-12-5.383-12-12s5.383-12,12-12S12-6.617,12,0S6.617,12,0,12z M9.6,0
	c0-2.218-0.76-4.255-2.023-5.88L-5.88,7.577C-4.255,8.841-2.218,9.6,0,9.6C5.302,9.6,9.6,5.302,9.6,0z M-9.6,0
	c0,2.219,0.76,4.255,2.023,5.881L5.88-7.577C4.255-8.841,2.218-9.6,0-9.6C-5.302-9.6-9.6-5.302-9.6,0z"/>
</symbol>
<symbol id="svg_x5F_Info" viewBox="-12 -12 24 24">
	<path d="M0,12c-6.627,0-12-5.373-12-12c0-6.628,5.373-12,12-12S12-6.628,12,0C12,6.627,6.627,12,0,12z M1.15-6h-2.4v7.2h2.4V-6z
		M1.15,3.6h-2.4V6h2.4V3.6z"/>
</symbol>
<symbol id="svg_x5F_Information" viewBox="-12 -12 24 24">
	<path d="M0,12c-6.627,0-12-5.372-12-12s5.373-12,12-12S12-6.628,12,0S6.627,12,0,12z M1.2-5.963h-2.4v7.237h2.4V-5.963z M1.2,3.581
	h-2.4V5.98h2.4V3.581z"/>
</symbol>
<symbol id="svg_x5F_Logout" viewBox="-10.5 -12 21 24">
	<path d="M3,8.564V5.378c0.849-0.37,1.629-0.9,2.304-1.574C6.72,2.386,7.5,0.504,7.5-1.5S6.72-5.386,5.304-6.804
	C3.886-8.22,2.004-9,0-9s-3.886,0.78-5.304,2.196C-6.72-5.386-7.5-3.504-7.5-1.5s0.78,3.886,2.196,5.304
	C-4.629,4.478-3.849,5.008-3,5.378v3.187C-7.337,7.272-10.5,3.257-10.5-1.5C-10.5-7.299-5.799-12,0-12S10.5-7.299,10.5-1.5
	C10.5,3.257,7.337,7.272,3,8.564z M-1.5,12h3V0h-3V12z"/>
</symbol>
<symbol id="svg_x5F_Looping" viewBox="-15.404 -14 30.809 28">
	<path d="M7,2.794V7H-7.003C-7.776,7-9,6.626-9,5.854V-0.1v-2.239l-4-1.856V5.854C-13,8.175-9.323,9-7.003,9H7v5l8.404-5.602
	L7,2.794z M-15.404-8.396L-7-14v5H9.106C11.426-9,13-8.174,13-5.854V4.195L10,2.34V0.1v-5.953C10-6.625,9.878-7,9.106-7H-7v4.206
	L-15.404-8.396z"/>
</symbol>
<symbol id="svg_x5F_Menu" viewBox="-5.166 -20 10.332 40">
	<path d="M5.166,0c0-2.762-2.238-5-5-5s-5,2.238-5,5s2.238,5,5,5S5.166,2.762,5.166,0z"/>
	<path d="M5.166,15c0-2.762-2.238-5-5-5s-5,2.238-5,5s2.238,5,5,5S5.166,17.762,5.166,15z"/>
	<path d="M4.834-15c0-2.762-2.238-5-5-5s-5,2.238-5,5s2.238,5,5,5S4.834-12.238,4.834-15z"/>
</symbol>
<symbol id="svg_x5F_OK" viewBox="-12 -12 24 24">
	<path d="M0,12c-6.627,0-12-5.372-12-12s5.373-12,12-12S12-6.628,12,0S6.627,12,0,12z M-0.074-4.041l0.004-0.004l-1.697-1.697
	l-0.005,0.005l-0.004-0.005l-1.697,1.697l0.004,0.004l-2.426,2.426l1.698,1.696l2.425-2.425l7.018,7.018l1.697-1.698L-0.074-4.041z
	"/>
</symbol>
<symbol id="svg_x5F_PTZbackground" viewBox="-98 -98.001 196 196.002">
	<path id="InnerColor_3_" d="M96,0c0-53.02-42.981-96.001-96-96.001S-96-53.02-96,0s42.981,96.001,96,96.001S96,53.02,96,0z"/>
	<path id="OuterRing_3_" d="M0,96.001C53.019,96.001,96,53.02,96,0S53.019-96.001,0-96.001S-96-53.02-96,0S-53.019,96.001,0,96.001
		M0,98.001c-54.038,0-98-43.963-98-98.001s43.962-98.001,98-98.001S98-54.038,98,0S54.038,98.001,0,98.001L0,98.001z"/>
</symbol>
<symbol id="svg_x5F_PTZcardinalDown" viewBox="-12.5 -7.706 25 15.412">
	<polygon points="12.5,4.624 0.171,-7.706 0,-7.534 -0.172,-7.706 -12.5,4.624 -9.417,7.706 0,-1.712 9.418,7.706 	"/>
</symbol>
<symbol id="svg_x5F_PTZcardinalLeft" viewBox="-7.706 -12.5 15.411 25">
	<polygon points="4.624,-12.5 -7.706,-0.171 -7.535,0 -7.706,0.172 4.624,12.5 7.706,9.418 -1.712,0 7.706,-9.419 	"/>
</symbol>
<symbol id="svg_x5F_PTZcardinalRight" viewBox="-7.706 -12.5 15.411 25">
	<polygon points="-4.624,12.5 7.706,0.171 7.535,0 7.706,-0.172 -4.624,-12.5 -7.706,-9.418 1.712,0 -7.706,9.419 	"/>
</symbol>
<symbol id="svg_x5F_PTZcardinalUp" viewBox="-12.5 -7.706 25 15.412">
	<polygon points="-12.5,-4.624 -0.171,7.706 0,7.534 0.172,7.706 12.5,-4.624 9.417,-7.706 0,1.712 -9.418,-7.706 	"/>
</symbol>
<symbol id="svg_x5F_PTZfocusFar" viewBox="-13.225 -28.955 26.45 57.91">
	<path d="M-2.364,1.814c-1.003,0-1.815-0.813-1.815-1.814s0.813-1.814,1.815-1.814c1.002,0,1.814,0.813,1.814,1.814
	S-1.362,1.814-2.364,1.814z M-2.364-0.906C-2.865-0.906-3.271-0.5-3.271,0c0,0.502,0.406,0.908,0.907,0.908S-1.457,0.502-1.457,0
	C-1.457-0.5-1.863-0.906-2.364-0.906z M13.225,13.717L-2.013,28.955c-14.95-16.384-14.949-41.526,0-57.91l15.238,15.237
	C6.63-5.78,6.629,5.779,13.225,13.717z M-2.364-2.549c-1.407,0-4,1.674-4,2.549s2.593,2.549,4,2.549s4-1.791,4-2.549
	S-0.957-2.549-2.364-2.549z"/>
</symbol>
<symbol id="svg_x5F_PTZfocusNear" viewBox="-13.225 -28.955 26.45 57.91">
	<path d="M2.013,28.955l-15.238-15.237c6.595-7.938,6.595-19.497,0-27.435L2.013-28.955C16.963-12.571,16.962,12.571,2.013,28.955z
		M2.341-4.459c-2.463,0-7,2.926-7,4.459s4.537,4.459,7,4.459s7-3.133,7-4.459S4.804-4.459,2.341-4.459z M2.341,3.176
	C0.587,3.176-0.835,1.754-0.835,0s1.422-3.176,3.176-3.176S5.517-1.754,5.517,0S4.095,3.176,2.341,3.176z M2.341-1.588
	C1.464-1.588,0.753-0.877,0.753,0s0.711,1.588,1.588,1.588S3.929,0.877,3.929,0S3.218-1.588,2.341-1.588z"/>
</symbol>
<symbol id="svg_x5F_PTZordinalNE" viewBox="-3.583 -3.584 7.167 7.167">
	<path d="M3.583-0.001C3.583-1.98,1.98-3.584,0-3.584c-1.979,0-3.583,1.604-3.583,3.583S-1.979,3.583,0,3.583
	C1.98,3.583,3.583,1.979,3.583-0.001z"/>
</symbol>
<symbol id="svg_x5F_PTZordinalNW" viewBox="-3.583 -3.583 7.167 7.167">
	<path d="M3.583,0C3.583-1.979,1.98-3.583,0-3.583c-1.979,0-3.583,1.604-3.583,3.583S-1.979,3.584,0,3.584
	C1.98,3.584,3.583,1.979,3.583,0z"/>
</symbol>
<symbol id="svg_x5F_PTZordinalSE" viewBox="-3.583 -3.584 7.167 7.167">
	<path d="M3.583-0.001C3.583-1.98,1.98-3.584,0-3.584c-1.979,0-3.583,1.604-3.583,3.583S-1.979,3.583,0,3.583
	C1.98,3.583,3.583,1.979,3.583-0.001z"/>
</symbol>
<symbol id="svg_x5F_PTZordinalSW" viewBox="-3.583 -3.584 7.167 7.167">
	<path d="M3.583-0.001C3.583-1.98,1.98-3.584,0-3.584c-1.979,0-3.583,1.604-3.583,3.583S-1.979,3.583,0,3.583
	C1.98,3.583,3.583,1.979,3.583-0.001z"/>
</symbol>
<symbol id="svg_x5F_PTZoutsideRing" viewBox="-96 -96.001 192 192.002">
	<path d="M0,88.001c48.523,0,88-39.478,88-88.001S48.523-88.001,0-88.001S-88-48.523-88,0S-48.523,88.001,0,88.001 M0,96.001
	C-53.019,96.001-96,53.02-96,0s42.981-96.001,96-96.001S96-53.02,96,0S53.019,96.001,0,96.001L0,96.001z"/>
</symbol>
<symbol id="svg_x5F_PTZstop" viewBox="-17.493 -17.493 34.986 34.986">
	<path d="M0,17.493c-9.661,0-17.493-7.832-17.493-17.493S-9.661-17.493,0-17.493S17.493-9.661,17.493,0S9.661,17.493,0,17.493z
		M7.5-7.5h-15v15h15V-7.5z"/>
</symbol>
<symbol id="svg_x5F_PTZzoomIn" viewBox="-28.956 -13.226 57.911 26.45">
	<path d="M-28.956,2.013l15.238-15.238c7.938,6.596,19.498,6.595,27.435,0L28.956,2.013C12.571,16.961-12.571,16.962-28.956,2.013z
		M1-2.938l-2,0.001v4.5l-4.5-0.001v2H-1l0,4.5h2V3.563h4.5l0-2.001L1,1.563L1-2.938z"/>
</symbol>
<symbol id="svg_x5F_PTZzoomOut" viewBox="-28.956 -13.225 57.911 26.45">
	<path d="M13.717,13.226c-7.938-6.596-19.498-6.595-27.435,0L-28.956-2.013c16.384-14.949,41.527-14.949,57.911,0L13.717,13.226z
		M5.5-3.966h-11v3h11V-3.966z"/>
</symbol>
<symbol id="svg_x5F_Pause" viewBox="-12 -12 24 24">
	<path d="M12-12H3v24h9V-12z M-3,12h-9v-24h9V12z"/>
</symbol>
<symbol id="svg_x5F_Play" viewBox="-12.2 -12 20.786 24">
	<polygon points="-10.393,12 10.393,0 -10.393,-12 	"/>
</symbol>
<symbol id="svg_x5F_Restart" viewBox="-12 -12 24 24">
	<path d="M0.067,12V9.639c2.552-0.014,4.949-1.015,6.755-2.822c1.818-1.82,2.82-4.241,2.82-6.815c0-2.575-1.001-4.996-2.82-6.816
	C5.003-8.637,2.585-9.639,0.014-9.639c-2.572,0-4.99,1.002-6.808,2.823c-1.819,1.82-2.82,4.241-2.82,6.816
	c0,1.995,0.603,3.898,1.72,5.502l2.677-2.681l1.773,8.567L-12,9.614l2.419-2.423c-1.501-2.003-2.391-4.493-2.391-7.19
	C-11.972-6.627-6.606-12,0.014-12C6.634-12,12-6.627,12,0.001C12,6.61,6.662,11.971,0.067,12z"/>
</symbol>
<symbol id="svg_x5F_RunProfile" viewBox="-12 -12 24 24">
	<path d="M-12,11.115L-0.932,12L-1.787,0.554l-3.219,3.329c-0.789-1.153-1.262-2.555-1.262-4.075c0-3.913,3.067-7.084,6.85-7.084
	c3.784,0,6.851,3.171,6.851,7.084c0,1.913-0.737,3.647-1.929,4.922l3.229,3.339C10.752,5.939,12,3.025,12-0.192
	C12-6.713,6.888-12,0.583-12S-10.834-6.713-10.834-0.192c0,2.826,0.971,5.411,2.572,7.442L-12,11.115z"/>
</symbol>
<symbol id="svg_x5F_Settings" viewBox="-12 -12 24 24">
	<path d="M12-2.182v4.363H9.363C9.147,3.273,8.809,3.99,8.359,4.773l1.859,1.889L6.823,10.07L4.877,8.258
	c-0.79,0.479-1.604,0.854-2.695,1.09V12h-4.363V9.348c-1.091-0.236-1.87-0.602-2.658-1.082l-1.866,1.82l-3.417-3.394l1.848-1.919
	c-0.447-0.783-0.798-1.5-1.014-2.592H-12v-4.363h2.791c0.237-1.092,0.591-1.822,1.043-2.565l-1.979-2.058l3.394-3.434l2.108,1.998
	c0.734-0.422,1.371-0.766,2.462-0.981V-12h4.363v2.778c1.091,0.216,1.763,0.54,2.497,0.962l2.081-2.018l3.427,3.395L8.225-4.747
	c0.451,0.743,0.82,1.474,1.057,2.565H12z M-4.282-0.096c0,2.382,1.937,4.32,4.319,4.32c2.381,0,4.32-1.938,4.32-4.32
	c0-2.383-1.939-4.32-4.32-4.32C-2.346-4.416-4.282-2.479-4.282-0.096z"/>
</symbol>
<symbol id="svg_x5F_SkipBack" viewBox="-13 -12 26 24">
	<path d="M13,12v-24L-7.786,0L13,12z M-13-12h5v24h-5V-12z"/>
</symbol>
<symbol id="svg_x5F_SkipForward" viewBox="-13 -12 26 24">
	<path d="M7.786,0L-13-12v24L7.786,0z M13,12H8v-24h5V12z"/>
</symbol>
<symbol id="svg_x5F_Snapshot" viewBox="-15 -12 30 24">
	<path d="M5.211-0.631c0-2.791-2.263-5.053-5.053-5.053c-2.791,0-5.053,2.262-5.053,5.053c0,2.789,2.262,5.052,5.053,5.052
	C2.949,4.421,5.211,2.158,5.211-0.631z M15,9v-21h-30V6.611L-5.904,9H-5v3H5V9H15z M7.737-0.631c0,4.185-3.393,7.578-7.578,7.578
	S-7.42,3.554-7.42-0.631c0-4.186,3.394-7.58,7.579-7.58S7.737-4.816,7.737-0.631z M-9,9.8V11h-5V8.234L-9,9.8z"/>
</symbol>
<symbol id="svg_x5F_Stoplight" viewBox="-5 -5 10 10">
	<path d="M0,5c2.762,0,5-2.238,5-5S2.762-5,0-5s-5,2.238-5,5S-2.762,5,0,5z"/>
</symbol>
<symbol id="svg_x5F_SystemConfiguration" viewBox="-11.979 -12 23.958 24">
	<path id="svg_x5F_SystemConfiguration_3_" d="M-2.466-7.109h-2.477l0,3.118c-0.711,0.274-1.368,0.659-1.944,1.141L-9.553-4.39
	l-2.426,4.202l2.701,1.56c-0.055,0.351-0.092,0.707-0.092,1.073c0,0.402,0.042,0.796,0.108,1.18l-2.667,1.54l2.427,4.202
	l2.699-1.559c0.583,0.473,1.245,0.847,1.961,1.11V12H0.01V8.882c0.712-0.274,1.368-0.659,1.944-1.141L4.62,9.28l2.426-4.202
	l-2.701-1.56C4.4,3.168,4.437,2.812,4.437,2.445H1.436c0,2.155-1.747,3.902-3.902,3.902c-2.155,0-3.902-1.747-3.902-3.902
	s1.747-3.902,3.902-3.902h0V-7.109z M11.979-1.231v-8.367c0-1.321-1.081-2.401-2.401-2.401H1.173c-1.321,0-2.401,1.08-2.401,2.401
	v8.367c0,1.32,1.081,2.401,2.401,2.401h8.405C10.898,1.17,11.979,0.089,11.979-1.231z M9.596-3.596H1.154v-6.04h8.442V-3.596z
		M6.788-4.474L4.752-6.509L3.94-5.696L2.667-6.97l0.812-0.813l0,0l1.273-1.274l3.309,3.31L6.788-4.474z"/>
</symbol>
<symbol id="svg_x5F_SystemLog" viewBox="-11.372 -12 22.744 24">
	<path id="svg_x5F_SystemLog_3_" d="M-6.572-12h-4.8v9.6h4.8V-12z M-0.59,2.4h-4.8V-12h4.8V2.4z M5.391,7.2h-4.8V-12h4.8V7.2z
		M11.372,12h-4.8v-24h4.8V12z"/>
</symbol>
<symbol id="svg_x5F_SystemLog2" viewBox="-10.817 -12 21.634 24">
	<path id="svg_x5F_SystemLog2_3_" d="M-0.809,0.189c0.05-0.233,0.074-0.496,0.074-0.789c0-0.292-0.024-0.554-0.074-0.787
	c-0.049-0.232-0.126-0.43-0.229-0.591C-1.141-2.139-1.273-2.264-1.435-2.35c-0.161-0.086-0.355-0.13-0.582-0.13
	c-0.221,0-0.412,0.044-0.572,0.13c-0.16,0.086-0.292,0.211-0.398,0.372c-0.105,0.161-0.184,0.358-0.234,0.591
	C-3.272-1.153-3.298-0.892-3.298-0.6c0,0.293,0.026,0.556,0.077,0.789c0.051,0.231,0.129,0.43,0.234,0.593
	c0.106,0.163,0.24,0.287,0.403,0.373c0.163,0.087,0.354,0.131,0.576,0.131c0.224,0,0.416-0.044,0.576-0.131
	c0.16-0.086,0.292-0.21,0.395-0.373C-0.935,0.619-0.858,0.421-0.809,0.189z M8.413,2.385v-5.972c0-1.322-1.082-2.403-2.404-2.403
	H-8.413c-1.322,0-2.404,1.081-2.404,2.403v5.972c0,1.322,1.082,2.404,2.404,2.404H6.009C7.332,4.789,8.413,3.707,8.413,2.385z
		M-5.16-2.418h-2.029v4.6h-1.183v-5.576h3.212V-2.418z M0.486-0.6c0,0.436-0.05,0.829-0.151,1.182
	c-0.1,0.352-0.253,0.653-0.458,0.904c-0.204,0.25-0.463,0.443-0.776,0.579C-1.211,2.202-1.582,2.27-2.009,2.27
	c-0.43,0-0.802-0.067-1.116-0.204c-0.314-0.136-0.574-0.328-0.78-0.578c-0.206-0.249-0.359-0.55-0.46-0.901
	c-0.101-0.353-0.15-0.745-0.15-1.177c0-0.433,0.05-0.826,0.15-1.181c0.101-0.355,0.253-0.658,0.458-0.91
	c0.205-0.252,0.464-0.446,0.778-0.584c0.314-0.137,0.685-0.206,1.112-0.206s0.798,0.069,1.112,0.206
	c0.314,0.138,0.574,0.332,0.78,0.584s0.359,0.555,0.459,0.907C0.436-1.42,0.486-1.028,0.486-0.6z M5.968-0.264H3.755v-0.983h1.056
	v-1.164C4.71-2.432,4.602-2.449,4.485-2.464C4.37-2.479,4.229-2.487,4.061-2.487c-0.257,0-0.478,0.046-0.662,0.138
	S3.063-2.13,2.947-1.964C2.829-1.799,2.744-1.603,2.689-1.375S2.607-0.896,2.607-0.621c0,0.286,0.039,0.547,0.119,0.781
	c0.079,0.234,0.192,0.434,0.339,0.599C3.212,0.924,3.39,1.053,3.597,1.143c0.208,0.091,0.441,0.135,0.7,0.135
	c0.239,0,0.467-0.028,0.685-0.087S5.395,1.06,5.567,0.973L5.96,1.918C5.724,2.021,5.463,2.104,5.178,2.167
	C4.893,2.23,4.602,2.263,4.305,2.263c-0.468,0-0.883-0.067-1.246-0.201C2.697,1.929,2.392,1.737,2.143,1.489
	C1.896,1.242,1.708,0.94,1.581,0.588C1.454,0.234,1.39-0.161,1.39-0.6c0-0.467,0.057-0.88,0.171-1.237
	c0.115-0.357,0.282-0.657,0.502-0.9c0.22-0.243,0.491-0.426,0.812-0.549c0.322-0.123,0.691-0.186,1.109-0.186
	c0.198,0,0.385,0.008,0.562,0.023c0.177,0.015,0.346,0.036,0.508,0.063c0.161,0.027,0.317,0.06,0.467,0.1
	c0.15,0.039,0.299,0.083,0.447,0.132V-0.264z M8.413,12H-6.009c-1.322,0-2.404-1.082-2.404-2.403V4.789h2.422v4.845H8.395V2.57
	c0.005-0.063,0.019-0.122,0.019-0.186v-5.972c0-0.063-0.014-0.123-0.019-0.185v-5.862H-5.991v3.644h-2.422v-3.606
	c0-1.321,1.082-2.403,2.404-2.403H8.413c1.322,0,2.404,1.082,2.404,2.403V9.597C10.817,10.918,9.735,12,8.413,12z"/>
</symbol>
<symbol id="svg_x5F_TempProfile" viewBox="-12 -12 24 24">
	<path id="svg_x5F_TempProfile_3_" d="M0,9.6c5.302,0,9.6-4.298,9.6-9.6S5.302-9.6,0-9.6S-9.6-5.302-9.6,0S-5.302,9.6,0,9.6 M0,12
	c-6.617,0-12-5.383-12-12s5.383-12,12-12S12-6.617,12,0S6.617,12,0,12L0,12z M1.2,0.391V6h-2.4v-6.6h0.003L-1.2-0.603l3.879-3.879
	l1.697,1.697L1.2,0.391z"/>
</symbol>
<symbol id="svg_x5F_User" viewBox="-12 -12 24 24">
	<path d="M0,12c-6.627,0-12-5.372-12-12s5.373-12,12-12S12-6.628,12,0S6.627,12,0,12z M0,8.428c2.154,0,3.9-1.746,3.9-3.899
	c0-2.154-1.746-3.9-3.9-3.9s-3.9,1.746-3.9,3.9C-3.9,6.682-2.154,8.428,0,8.428z M0-8.428c-3.037,0-5.721,1.516-7.353,3.826
	C-5.32-3.021-2.773-2.072,0-2.072s5.32-0.949,7.353-2.529C5.721-6.912,3.037-8.428,0-8.428z"/>
</symbol>
<symbol id="svg_x5F_Viewdetails" viewBox="-9.607 -12 19.215 24">
	<path d="M-0.019,8.921l1.477-1.182l0.655-0.524h0.839h4.262V-9.607h-14.43V7.215h4.261h0.856l0.662,0.543L-0.019,8.921 M-0.038,12
	l-2.916-2.393h-6.654V-12H9.607V9.607H2.953L-0.038,12L-0.038,12z M2.953,9.607 M-2.953,9.607 M5.944,4.748h-8.299V2.355h8.299
	V4.748z M-3.372,4.748h-2.393V2.355h2.393V4.748z M-3.372,0h-2.393v-2.393h2.393V0z M-3.372-4.785h-2.393v-2.393h2.393V-4.785z
		M5.944,0h-8.299v-2.393h8.299V0z M5.944-4.785h-8.299v-2.393h8.299V-4.785z"/>
</symbol>
<symbol id="svg_x5F_Volume" viewBox="-7.79 -7.151 15.58 14.302">
	<path d="M-4.586,2.15L0.21,7.138V-7.138L-4.586-1.85H-7.79v4H-4.586z M1.21,7.15V5.147c3-0.298,4.586-2.492,4.586-5.148
	c0-2.655-1.586-4.85-4.586-5.147v-2.003c4,0.305,6.58,3.389,6.58,7.15C7.79,3.763,5.21,6.846,1.21,7.15z M4.6-0.001
	c0,1.999-1.39,3.648-3.39,3.938V1.901c1-0.254,1.396-1.011,1.396-1.902c0-0.891-0.396-1.646-1.396-1.901v-2.036
	C3.21-3.648,4.6-1.999,4.6-0.001z"/>
</symbol>
<symbol id="svg_x5F_Warning" viewBox="-12 -12 24 24">
	<path d="M0-12c6.627,0,12,5.372,12,12S6.627,12,0,12S-12,6.628-12,0S-6.627-12,0-12z M-1.2,5.963h2.4v-7.237h-2.4V5.963z
		M-1.2-3.581h2.4V-5.98h-2.4V-3.581z"/>
</symbol>
<symbol id="svg_mio_ViewStream" viewBox="2 2 20 20">
	<path d="M18 4l2 4h-3l-2-4h-2l2 4h-3l-2-4H8l2 4H7L5 4H4c-1.1 0-1.99.9-1.99 2L2 18c0 1.1.9 2 2 2h16c1.1 0 2-.9 2-2V4h-4z"/>
</symbol>
<symbol id="svg_mio_VideoFilter" viewBox="2 2 20 20">
    <path d="M18 4l2 3h-3l-2-3h-2l2 3h-3l-2-3H8l2 3H7L5 4H4c-1.1 0-1.99.9-1.99 2L2 18c0 1.1.9 2 2 2h16c1.1 0 2-.9 2-2V4h-4zm-6.75 11.25L10 18l-1.25-2.75L6 14l2.75-1.25L10 10l1.25 2.75L14 14l-2.75 1.25zm5.69-3.31L16 14l-.94-2.06L13 11l2.06-.94L16 8l.94 2.06L19 11l-2.06.94z"/>
</symbol>
<symbol id="svg_mio_Trash" viewBox="3 3 18 18">
	<path d="M6 19c0 1.1.9 2 2 2h8c1.1 0 2-.9 2-2V7H6v12zM19 4h-3.5l-1-1h-5l-1 1H5v2h14V4z"/>
</symbol>
<symbol id="svg_mio_Fullscreen" viewBox="5 5 14 14">
	<path d="M7 14H5v5h5v-2H7v-3zm-2-4h2V7h3V5H5v5zm12 7h-3v2h5v-5h-2v3zM14 5v2h3v3h2V5h-5z"/>
</symbol>
<symbol id="svg_mio_FullscreenExit" viewBox="5 5 14 14">
	<path d="M5 16h3v3h2v-5H5v2zm3-8H5v2h5V5H8v3zm6 11h2v-3h3v-2h-5v5zm2-11V5h-2v5h5V8h-3z"/>
</symbol>
<symbol id="svg_mio_Tab" viewBox="1 1 22 22">
	<path d="M21 3H3c-1.1 0-2 .9-2 2v14c0 1.1.9 2 2 2h18c1.1 0 2-.9 2-2V5c0-1.1-.9-2-2-2zm0 16H3V5h10v4h8v10z"/>
</symbol>
<symbol id="svg_mio_Refresh" viewBox="4 4 16 16">
	<path d="M17.65 6.35C16.2 4.9 14.21 4 12 4c-4.42 0-7.99 3.58-7.99 8s3.57 8 7.99 8c3.73 0 6.84-2.55 7.73-6h-2.08c-.82 2.33-3.04 4-5.65 4-3.31 0-6-2.69-6-6s2.69-6 6-6c1.66 0 3.14.69 4.22 1.78L13 11h7V4l-2.35 2.35z"/>
</symbol>
<symbol id="svg_stroke_closeBtn" viewBox="0 0 40 40">
	<circle stroke-width="3" fill-opacity="0" cx="20" cy="20" r="18.5"/>
	<path stroke-width="5" d="M 12,12 L 28,28 M 28,12 L 12,28" />
</symbol>
<symbol id="svg_stroke_loading_circle" viewBox="0 0 100 100">
	<circle cx="50" cy="50" fill="none" stroke-width="10" r="35" stroke-dasharray="164.93361431346415 56.97787143782138" transform="rotate(258 50 50)">
	</circle>
</symbol>
<symbol id="svg_mio_deviceInfo" viewBox="1 1 22 22">
	<path d="M13 7h-2v2h2V7zm0 4h-2v6h2v-6zm4-9.99L7 1c-1.1 0-2 .9-2 2v18c0 1.1.9 2 2 2h10c1.1 0 2-.9 2-2V3c0-1.1-.9-1.99-2-1.99zM17 19H7V5h10v14z"/>
</symbol>
<symbol id="svg_mio_copy" viewBox="1 1 22 22">
	<path d="M16 1H4c-1.1 0-2 .9-2 2v14h2V3h12V1zm3 4H8c-1.1 0-2 .9-2 2v14c0 1.1.9 2 2 2h11c1.1 0 2-.9 2-2V7c0-1.1-.9-2-2-2zm0 16H8V7h11v14z"/>
</symbol>
<symbol id="svg_mio_volumeOff" viewBox="3 3 18 18">
	<path d="M16.5 12c0-1.77-1.02-3.29-2.5-4.03v2.21l2.45 2.45c.03-.2.05-.41.05-.63zm2.5 0c0 .94-.2 1.82-.54 2.64l1.51 1.51C20.63 14.91 21 13.5 21 12c0-4.28-2.99-7.86-7-8.77v2.06c2.89.86 5 3.54 5 6.71zM4.27 3L3 4.27 7.73 9H3v6h4l5 5v-6.73l4.25 4.25c-.67.52-1.42.93-2.25 1.18v2.06c1.38-.31 2.63-.95 3.69-1.81L19.73 21 21 19.73l-9-9L4.27 3zM12 4L9.91 6.09 12 8.18V4z"/>
</symbol>
<symbol id="svg_mio_volumeMute" viewBox="7 3 18 18">
	<path d="M7 9v6h4l5 5V4l-5 5H7z"/>
</symbol>
<symbol id="svg_mio_volumeDown" viewBox="5 3 18 18">
	<path d="M18.5 12c0-1.77-1.02-3.29-2.5-4.03v8.05c1.48-.73 2.5-2.25 2.5-4.02zM5 9v6h4l5 5V4L9 9H5z"/>
</symbol>
<symbol id="svg_mio_volumeUp" viewBox="3 3 18 18">
	<path d="M3 9v6h4l5 5V4L7 9H3zm13.5 3c0-1.77-1.02-3.29-2.5-4.03v8.05c1.48-.73 2.5-2.25 2.5-4.02zM14 3.23v2.06c2.89.86 5 3.54 5 6.71s-2.11 5.85-5 6.71v2.06c4.01-.91 7-4.49 7-8.77s-2.99-7.86-7-8.77z"/>
</symbol>
<symbol id="svg_mio_cbUnchecked" viewBox="3 3 18 18">
	<path d="M19 5v14H5V5h14m0-2H5c-1.1 0-2 .9-2 2v14c0 1.1.9 2 2 2h14c1.1 0 2-.9 2-2V5c0-1.1-.9-2-2-2z"/>
</symbol>
<symbol id="svg_mio_cbChecked" viewBox="3 3 18 18">
	<path d="M19 3H5c-1.11 0-2 .9-2 2v14c0 1.1.89 2 2 2h14c1.11 0 2-.9 2-2V5c0-1.1-.89-2-2-2zm-9 14l-5-5 1.41-1.41L10 14.17l7.59-7.59L19 8l-9 9z"/>
</symbol>
<symbol id="svg_mio_imageLarger" viewBox="1 1 22 22">
	<path d="M24 24H0V0h24v24z" fill="none"/>
	<path d="M21 15h2v2h-2v-2zm0-4h2v2h-2v-2zm2 8h-2v2c1 0 2-1 2-2zM13 3h2v2h-2V3zm8 4h2v2h-2V7zm0-4v2h2c0-1-1-2-2-2zM1 7h2v2H1V7zm16-4h2v2h-2V3zm0 16h2v2h-2v-2zM3 3C2 3 1 4 1 5h2V3zm6 0h2v2H9V3zM5 3h2v2H5V3zm-4 8v8c0 1.1.9 2 2 2h12V11H1zm2 8l2.5-3.21 1.79 2.15 2.5-3.22L13 19H3z"/>
</symbol>
<symbol id="svg_mio_run" viewBox="1 1 22 22">
	<path d="M13.49 5.48c1.1 0 2-.9 2-2s-.9-2-2-2-2 .9-2 2 .9 2 2 2zm-3.6 13.9l1-4.4 2.1 2v6h2v-7.5l-2.1-2 .6-3c1.3 1.5 3.3 2.5 5.5 2.5v-2c-1.9 0-3.5-1-4.3-2.4l-1-1.6c-.4-.6-1-1-1.7-1-.3 0-.5.1-.8.1l-5.2 2.2v4.7h2v-3.4l1.8-.7-1.6 8.1-4.9-1-.4 2 7 1.4z"/>
</symbol>
<symbol id="svg_mio_quilt" viewBox="4 3 17 17">
	<path d="M10 18h5v-6h-5v6zm-6 0h5V5H4v13zm12 0h5v-6h-5v6zM10 5v6h11V5H10z"/>
</symbol>
<symbol id="svg_mio_cloudUploading" viewBox="0 0 24 24">
	<path d="M19.35 10.04C18.67 6.59 15.64 4 12 4 9.11 4 6.6 5.64 5.35 8.04 2.34 8.36 0 10.91 0 14c0 3.31 2.69 6 6 6h13c2.76 0 5-2.24 5-5 0-2.64-2.05-4.78-4.65-4.96zM14 13v4h-4v-4H7l5-5 5 5h-3z"/>
</symbol>
<symbol id="svg_mio_cloudUploaded" viewBox="0 0 24 24">
	<path d="M19.35 10.04C18.67 6.59 15.64 4 12 4 9.11 4 6.6 5.64 5.35 8.04 2.34 8.36 0 10.91 0 14c0 3.31 2.69 6 6 6h13c2.76 0 5-2.24 5-5 0-2.64-2.05-4.78-4.65-4.96z"/>
</symbol>
<symbol id="svg_mio_lock" viewBox="2 1 20 21">
	<path d="M18 8h-1V6c0-2.76-2.24-5-5-5S7 3.24 7 6v2H6c-1.1 0-2 .9-2 2v10c0 1.1.9 2 2 2h12c1.1 0 2-.9 2-2V10c0-1.1-.9-2-2-2zm-6 9c-1.1 0-2-.9-2-2s.9-2 2-2 2 .9 2 2-.9 2-2 2zm3.1-9H8.9V6c0-1.71 1.39-3.1 3.1-3.1 1.71 0 3.1 1.39 3.1 3.1v2z"/>
</symbol>
<symbol id="svg_mio_warning" viewBox="1 1 22 22">
	<path d="M1 21h22L12 2 1 21zm12-3h-2v-2h2v2zm0-4h-2v-4h2v4z"/>
</symbol>
<symbol id="svg_mio_help" viewBox="2 2 20 20">
	<path d="M12 2C6.48 2 2 6.48 2 12s4.48 10 10 10 10-4.48 10-10S17.52 2 12 2zm1 17h-2v-2h2v2zm2.07-7.75l-.9.92C13.45 12.9 13 13.5 13 15h-2v-.5c0-1.1.45-2.1 1.17-2.83l1.24-1.26c.37-.36.59-.86.59-1.41 0-1.1-.9-2-2-2s-2 .9-2 2H8c0-2.21 1.79-4 4-4s4 1.79 4 4c0 .88-.36 1.68-.93 2.25z"/>
</symbol>
<symbol id="svg_stroke_contrast" viewbox="0 0 100 100">
	<circle cx="50" cy="50" r="45" stroke-width="10" fill="transparent" />
	<path d="M50,0 a1,1 0 0,0 0,100" />
</symbol>
<symbol id="svg_mio_lightbulb" viewBox="2 2 20 20">
	<path d="M9 21c0 .55.45 1 1 1h4c.55 0 1-.45 1-1v-1H9v1zm3-19C8.14 2 5 5.14 5 9c0 2.38 1.19 4.47 3 5.74V17c0 .55.45 1 1 1h6c.55 0 1-.45 1-1v-2.26c1.81-1.27 3-3.36 3-5.74 0-3.86-3.14-7-7-7zm2.85 11.1l-.85.6V16h-4v-2.3l-.85-.6C7.8 12.16 7 10.63 7 9c0-2.76 2.24-5 5-5s5 2.24 5 5c0 1.63-.8 3.16-2.15 4.1z"/>
</symbol>
	<symbol id="svg_mio_brightness" viewBox="0.7 0.7 22.6 22.6">
	<path d="M20 15.31L23.31 12 20 8.69V4h-4.69L12 .69 8.69 4H4v4.69L.69 12 4 15.31V20h4.69L12 23.31 15.31 20H20v-4.69zM12 18c-3.31 0-6-2.69-6-6s2.69-6 6-6 6 2.69 6 6-2.69 6-6 6z"/>
</symbol>
<symbol id="svg_mio_replay" viewBox="2 1 20 20">
	<path d="M12 5V1L7 6l5 5V7c3.31 0 6 2.69 6 6s-2.69 6-6 6-6-2.69-6-6H4c0 4.42 3.58 8 8 8s8-3.58 8-8-3.58-8-8-8z"/>
    <text x="50%" y="50%" stroke="#51c5cf" text-anchor="middle" stroke-width="2px" dy=".3em" width="10" height="10">Look, I’m centered!Look, I’m centered!</text>
</symbol>
<symbol id="svg_mio_popout" viewBox="1 0 22 22">
	<path d="M20 4h-4l-4-4-4 4H4c-1.1 0-2 .9-2 2v14c0 1.1.9 2 2 2h16c1.1 0 2-.9 2-2V6c0-1.1-.9-2-2-2zm0 16H4V6h4.52l3.52-3.5L15.52 6H20v14zM18 8H6v10h12"/>
</symbol>
<symbol id="svg_chrome" viewBox="15 9 110 115">
	<path fill="#FED130" d="M123.5 45.2a57.6 57.6 0 0 1-61.8 78.3l26.7-46.3a21.3 21.3 0 0 0-18.4-32h53.5z"/>
	<path fill="#E64A45" d="M123.5 45.2H70a21.3 21.3 0 0 0-18.6 31.6L24.8 31a57.6 57.6 0 0 1 98.7 14.3z"/>
	<path fill="#51B84E" d="M88.4 77.3l-26.7 46.3A57.5 57.5 0 0 1 24.9 31l26.4 45.9.3.4a21.3 21.3 0 0 0 36.8 0z"/>
	<path fill="#4793C6" d="M82.5 44.5a25.5 25.5 0 1 1-34.8 35l-.3-.5a25.5 25.5 0 0 1 22.4-38c4.3 0 8.8 1.2 12.8 3.5z"/>
	<path fill="#FFF" d="M69.8 94.1A27.5 27.5 0 0 1 46 80.4l-.3-.5a27.6 27.6 0 0 1 24.1-40.8 27.2 27.2 0 0 1 23.8 41.3 27.6 27.6 0 0 1-23.8 13.7zm0-51.1a23.7 23.7 0 0 0-20.7 35l.2.5a23.3 23.3 0 0 0 20.5 11.8 23.7 23.7 0 0 0 22.8-29.8A23.5 23.5 0 0 0 69.8 43z"/>
</symbol>
<symbol id="svg_firefox" viewBox="0 -.5 32 31">
	<path fill="#2394BC" d="M16-.5a15 15 0 1 1 0 30 15 15 0 0 1 0-30z"/>
	<path fill="#FF9900" d="M18.6 30.3A16 16 0 0 0 32 14.5l-.1.2a10 10 0 0 0-.2-4c0 .8-.2 1.3-.3 1.6 0-.1 0-1-.3-2.3l-.7-2.6.2 1c-1.2-3.2-4-7-11.1-6.9 0 0 2.5.3 3.7 2 0 0-1.2-.3-2.1.2L23.9 5l.7.4c1.5 1 2.8 2.5 2.7 4.5-.3-.5-.7-.9-1.3-1 .7 2.6.8 4.8.2 6.5-.3-1.1-.7-1.8-1-2 .4 3.5-.1 6.2-1.7 7.9.3-1 .4-2 .3-2.6-1.8 2.8-4 4.3-6.4 4.4-.9 0-1.8-.2-2.6-.5a8.4 8.4 0 0 1-3.3-2.1c1.5.1 3-.1 4.1-.8l2-1.3c.3-.1.6-.1.8 0 .5 0 .7-.3.5-.8l-1-.9c-1-.5-2.1-.4-3.2.3-1 .6-2.1.6-3 0a9 9 0 0 1-2-1.9l-.2-.3a8.4 8.4 0 0 1 0 0c0-.8.3-1.2 1-1.3h-.3.2c.7 0 1.5.2 2.3.5.2-.8 0-1.7-.6-2.6a12 12 0 0 1 2.2-1.7c.2-.1.4-.3.5-.6.2-.3.1-.5-.1-.7L13 8.4c-.3 0-.6-.3-1-.6l-.9-1-.2-.1h-.1v-.1l.7-1.8v-.1c.4-.5 1-1 1.8-1.6-1.6.2-3 .9-4.3 2.1-1-.4-2.3-.3-3.7.3l-.2.1.2-.1c-1-.5-1.5-1.6-1.8-3.6C2.3 3 1.8 5.1 1.8 8l-.3.5h-.1v.1L.6 10c-.4.8-.5 1.4-.6 2v.5l1-.7c-.3.8-.6 1.7-.7 2.7v.4l-.3-.3c0 3.4 1 6.6 3 9.2v.2a16 16 0 0 0 9.5 6.2h.4a16 16 0 0 0 1.8.3h.8l.5.1h1.1l1.2-.2h.3zM9.2 13.5zm19.5-2.7v.1-.1z"/>
</symbol>
<symbol id="svg_mio_edit" viewBox="3 3 18 18">
	<path d="M3 17.25V21h3.75L17.81 9.94l-3.75-3.75L3 17.25zM20.71 7.04c.39-.39.39-1.02 0-1.41l-2.34-2.34c-.39-.39-1.02-.39-1.41 0l-1.83 1.83 3.75 3.75 1.83-1.83z"/>
</symbol>
<symbol id="svg_mio_clock" viewBox="2 2 20 20">
	<path d="M11.99 2C6.47 2 2 6.48 2 12s4.47 10 9.99 10C17.52 22 22 17.52 22 12S17.52 2 11.99 2zM12 20c-4.42 0-8-3.58-8-8s3.58-8 8-8 8 3.58 8 8-3.58 8-8 8z"/>
	<path d="M12.5 7H11v6l5.25 3.15.75-1.23-4.5-2.67z"/>
</symbol>
</svg>
