
<svg xmlns="http://www.w3.org/2000/svg" viewBox="-12 -12 24 24">
	<path d="M0,12c-6.627,0-12-5.372-12-12s5.373-12,12-12S12-6.628,12,0S6.627,12,0,12z M-2.889,7.2c0.798,0,1.445-0.646,1.445-1.444
	c0-0.798-0.647-1.444-1.445-1.444s-1.445,0.646-1.445,1.444C-4.334,6.555-3.687,7.2-2.889,7.2z M0,1.016v-1.58v-2.279h-0.722V-7.2
	h-1.444v4.356h-1.445V-7.2h-1.445v4.356h-0.722v2.279v1.58v1.174c0,0.794,0.65,1.445,1.444,1.445h2.89C-0.65,3.635,0,2.983,0,2.189
	V1.016z M2.889,1.016v-1.58v-2.279V-7.2H1.444v4.356v2.279v1.58v1.174c0,1.136-0.658,2.12-1.614,2.592
	C-0.059,5.087,0,5.413,0,5.756C0,6.282-0.144,6.774-0.391,7.2h1.583c0.161-0.452,0.252-0.938,0.252-1.444
	c0-0.111-0.004-0.22-0.013-0.328c0.894-0.794,1.458-1.952,1.458-3.238V1.016z M5.778,1.016v-1.58v-2.279V-7.2L4.334-7.177v4.333
	v2.279v1.58v1.174c0,1.465-0.548,2.805-1.451,3.824C2.865,6.422,2.802,6.818,2.703,7.2h1.483c0.042-0.204,0.076-0.41,0.1-0.62
	c0.935-1.217,1.492-2.74,1.492-4.391V1.016z"/>
</svg>