<svg viewBox="0 -.5 32 31" xmlns="http://www.w3.org/2000/svg"><path d="M16-.5a15 15 0 1 1 0 30 15 15 0 0 1 0-30z" fill="#2394BC"/><path d="M18.6 30.3A16 16 0 0 0 32 14.5l-.1.2a10 10 0 0 0-.2-4c0 .8-.2 1.3-.3 1.6 0-.1 0-1-.3-2.3l-.7-2.6.2 1c-1.2-3.2-4-7-11.1-6.9 0 0 2.5.3 3.7 2 0 0-1.2-.3-2.1.2L23.9 5l.7.4c1.5 1 2.8 2.5 2.7 4.5-.3-.5-.7-.9-1.3-1 .7 2.6.8 4.8.2 6.5-.3-1.1-.7-1.8-1-2 .4 3.5-.1 6.2-1.7 7.9.3-1 .4-2 .3-2.6-1.8 2.8-4 4.3-6.4 4.4-.9 0-1.8-.2-2.6-.5a8.4 8.4 0 0 1-3.3-2.1c1.5.1 3-.1 4.1-.8l2-1.3c.3-.1.6-.1.8 0 .5 0 .7-.3.5-.8l-1-.9c-1-.5-2.1-.4-3.2.3-1 .6-2.1.6-3 0a9 9 0 0 1-2-1.9l-.2-.3a8.4 8.4 0 0 1 0 0c0-.8.3-1.2 1-1.3h-.3.2c.7 0 1.5.2 2.3.5.2-.8 0-1.7-.6-2.6a12 12 0 0 1 2.2-1.7c.2-.1.4-.3.5-.6.2-.3.1-.5-.1-.7L13 8.4c-.3 0-.6-.3-1-.6l-.9-1-.2-.1h-.1v-.1l.7-1.8v-.1c.4-.5 1-1 1.8-1.6-1.6.2-3 .9-4.3 2.1-1-.4-2.3-.3-3.7.3l-.2.1.2-.1c-1-.5-1.5-1.6-1.8-3.6C2.3 3 1.8 5.1 1.8 8l-.3.5h-.1v.1L.6 10c-.4.8-.5 1.4-.6 2v.5l1-.7c-.3.8-.6 1.7-.7 2.7v.4l-.3-.3c0 3.4 1 6.6 3 9.2v.2a16 16 0 0 0 9.5 6.2h.4a16 16 0 0 0 1.8.3h.8l.5.1h1.1l1.2-.2h.3zM9.2 13.5zm19.5-2.7v.1-.1z" fill="#EC8840"/></svg>