<svg xmlns="http://www.w3.org/2000/svg" viewBox="0 0 49.48 49.48">
	<path d="M24.74 0A24.74 24.74 0 0 0 0 24.74a24.74 24.74 0 0 0 24.74 24.74 24.74 24.74 0 0 0 24.74-24.74A24.74 24.74 0 0 0 24.74 0zm10.05 4.1a6.35 6.35 0 0 1 6.35 6.35 6.35 6.35 0 0 1-6.35 6.35 6.35 6.35 0 0 1-6.35-6.35A6.35 6.35 0 0 1 34.8 4.1zm0 2.32a4.03 4.03 0 0 0-4.03 4.03 4.03 4.03 0 0 0 4.03 4.03 4.03 4.03 0 0 0 4.03-4.03 4.03 4.03 0 0 0-4.03-4.03zM28.58 17.2a1.06 1.06 0 0 1 1.05 1.19v5.17h9.26a1.06 1.06 0 1 1 0 2.11H28.57a1.06 1.06 0 0 1-1.05-1.05v-3.35l-7.9 9.83H30.3a1.06 1.06 0 0 1 .84 1.7l-5.78 7.54a1.06 1.06 0 1 1-1.68-1.29l4.48-5.83H17.93l-7.47 9.3a1.06 1.06 0 1 1-1.65-1.33L26.37 19.3H13.49a1.06 1.06 0 1 1 0-2.11h14.94a1.06 1.06 0 0 1 .11-.01 1.06 1.06 0 0 1 .04 0z"/>
</svg>